<svg width="64" height="44.001" fill="none" xmlns="http://www.w3.org/2000/svg"><path d="M44.992 14.262H17.476c-.578 0-1.047.47-.996 1.023.602 6.585 6.978 11.767 14.752 11.767 7.776 0 14.15-5.182 14.754-11.767.052-.553-.417-1.023-.994-1.023z" fill="#F63"/><path d="M26.266 4.408c-.308 0-.613-.132-.812-.386C24.448 2.75 22.54 1.96 20.471 1.96c-2.069 0-3.978.79-4.983 2.062-.34.431-.981.513-1.428.186a.955.955 0 01-.194-1.373C15.271 1.06 17.738 0 20.471 0c2.732 0 5.2 1.06 6.606 2.835a.956.956 0 01-.194 1.373 1.04 1.04 0 01-.617.2zm21.522 0c-.307 0-.612-.132-.811-.386C45.97 2.75 44.062 1.96 41.993 1.96c-2.068 0-3.977.79-4.982 2.062a1.047 1.047 0 01-1.428.186.955.955 0 01-.194-1.373C36.793 1.06 39.26 0 41.993 0s5.201 1.06 6.607 2.835a.956.956 0 01-.195 1.373c-.185.136-.401.2-.617.2zM2.852 30.003l-.4 1.018c-.036.085-.164.119-.283.078a2.868 2.868 0 01-.847-.428 3 3 0 01-.694-.648 3.132 3.132 0 01-.54-1.122 3.053 3.053 0 01-.054-1.178c.062-.38.202-.746.422-1.097.222-.351.507-.65.864-.897a3.23 3.23 0 011.156-.507 3.225 3.225 0 011.217-.04c.4.064.78.202 1.145.418.369.215.683.498.942.843.165.222.305.503.413.838.112.335.167.648.165.941.002.118-.085.208-.181.211l-1.128.03c-.109 0-.197-.096-.197-.233a1.627 1.627 0 00-.074-.51 1.427 1.427 0 00-.208-.436 1.656 1.656 0 00-1.107-.664 1.67 1.67 0 00-1.259.288 1.54 1.54 0 00-.678 1.057c-.066.438.037.846.315 1.215.086.114.203.222.355.322.156.102.306.179.46.227.152.047.235.167.196.274zm4.502-1.167c.093-.098.212-.102.313-.012l2.896 2.56c.103.089.107.203.013.3l-.651.68c-.099.104-.204.107-.313.013l-1.954-1.728-.685.716 1.483 1.312c.112.099.123.217.023.32l-.539.563c-.092.098-.217.096-.327 0L6.13 32.248l-.704.737 1.955 1.727c.138.122.148.28.031.4l-.61.638c-.091.095-.212.097-.313.008l-2.956-2.61c-.102-.09-.11-.2-.016-.299l3.837-4.013zm6.266 8.422c-.007.284-.09.55-.253.8-.307.474-.705.746-1.195.818-.486.073-1.016-.06-1.588-.403l-2.012-1.206c-.093-.056-.11-.127-.053-.213l3.063-4.726c.056-.086.13-.102.222-.046l1.863 1.117c.545.327.886.707 1.023 1.14.138.433.06.879-.234 1.333-.236.365-.65.605-1.064.618.16.229.236.483.228.768zm-2.334.098c.33.199.668.125.87-.184.196-.305.11-.618-.222-.815l-.845-.506-.648.999.845.506zm.951-3.273l-.547.843.698.418c.28.169.56.11.728-.15.167-.26.099-.525-.182-.693l-.697-.418zm4.228 1.104c.052-.124.16-.169.288-.118l3.65 1.408c.128.05.175.154.123.278l-.357.857c-.055.13-.153.17-.29.118l-2.463-.95-.376.902 1.87.721c.14.054.194.161.14.292l-.296.709c-.052.123-.167.164-.307.11l-1.87-.72-.388.928 2.464.95c.175.069.242.21.177.364l-.337.805c-.05.12-.162.163-.29.113l-3.724-1.437c-.13-.05-.177-.15-.125-.274l2.11-5.056zm7.512 2.158c.637.135 1.112.424 1.424.874.313.445.405.97.265 1.575-.136.598-.447 1.034-.925 1.312-.478.274-1.033.345-1.672.21l-.714-.15-.358 1.563c-.03.129-.128.192-.271.161l-1.046-.22c-.135-.029-.195-.124-.166-.252l1.216-5.322a.211.211 0 01.26-.166l.527.111.53.113.93.191zm-.673 2.665a.753.753 0 00.564-.086c.17-.1.276-.25.322-.45a.646.646 0 00-.095-.54.707.707 0 00-.473-.309l-.653-.138-.317 1.387.652.136zm7.973-1.879c.131.007.212.1.205.224L31.17 43.8c-.008.132-.092.209-.23.2l-1.068-.057c-.147-.008-.226-.093-.218-.226l.093-1.621-.621-.032-.988 1.607c-.088.136-.144.173-.265.166l-1.249-.066c-.134-.007-.201-.14-.129-.252l1.179-1.851c-.577-.372-.89-.997-.847-1.733.035-.614.264-1.097.69-1.446.426-.352.968-.508 1.62-.474l1.867.098.273.018zM29.82 40.84l.083-1.462-.779-.041a.748.748 0 00-.546.172.69.69 0 00-.238.499c-.01.21.049.388.179.544.134.152.31.234.521.245l.78.043zm8.066-3.287c.104-.013.164.034.176.138l.689 5.527c.014.103-.035.16-.138.173l-1.173.136c-.105.013-.165-.034-.177-.138l-.275-2.196-2.27.262.273 2.196c.014.104-.035.161-.138.173l-1.17.135c-.108.012-.167-.034-.181-.138l-.689-5.527c-.012-.104.036-.161.144-.174l1.17-.134c.105-.013.165.034.178.138l.25 2.017 2.272-.261-.252-2.018c-.013-.104.035-.16.138-.173l1.173-.136zm1.912 1.424a2.93 2.93 0 01.32-1.13c.183-.343.434-.65.756-.919.32-.272.686-.472 1.103-.605.418-.132.837-.18 1.26-.145.423.03.817.135 1.17.306.358.17.679.412.958.725.283.308.492.66.63 1.061.182.532.216 1.064.102 1.59a2.898 2.898 0 01-.732 1.398 3.16 3.16 0 01-1.393.866 3.33 3.33 0 01-2.437-.157 3.183 3.183 0 01-.955-.718 3.055 3.055 0 01-.624-1.06c-.14-.4-.19-.803-.158-1.212zm2.42 1.683c.408.197.834.222 1.28.08.44-.14.762-.404.969-.794.204-.392.238-.795.09-1.22a1.56 1.56 0 00-.831-.933 1.666 1.666 0 00-1.272-.088 1.6 1.6 0 00-.972.8 1.49 1.49 0 00-.088 1.226c.145.426.419.732.824.929zm7.729-7.886c.1-.056.225-.018.29.09l2.83 4.718c.06.1.028.23-.079.288l-.938.519a.218.218 0 01-.294-.079l-.956-1.59a1.718 1.718 0 01-.808.977c-.623.346-1.245.435-1.863.272-.62-.166-1.12-.565-1.5-1.199l-.858-1.432c-.062-.1-.034-.233.065-.286l.93-.516c.116-.064.252-.032.315.075l.856 1.429c.328.546.859.683 1.428.368.286-.159.462-.363.538-.613.076-.251.037-.509-.119-.77l-.86-1.436a.208.208 0 01.072-.29l.95-.524zm9.284-.174c.144.034.212.163.105.256l-1.035.89a.287.287 0 01-.228.07l-2.685-.67-.643.551 1.486 1.599c.073.078.069.152-.01.218l-.887.764c-.082.07-.158.066-.232-.012l-3.852-4.147c-.07-.075-.065-.149.015-.219l.887-.764c.078-.066.155-.063.226.013l1.414 1.523.503-.431-.236-2.542c-.015-.154.033-.217.143-.312l1.026-.88c.115-.099.242-.023.254.136l.278 3.105 3.471.852zm4.615-5.928c.142.034.2.136.107.265l-.683.934c-.067.092-.196.13-.318.1l-.815-.227-1.22 1.667.497.655a.26.26 0 01.008.324l-.682.93c-.089.122-.206.117-.296-.009l-3.348-4.89a.295.295 0 01-.004-.336l.509-.694c.066-.092.2-.135.325-.104l5.92 1.385zm-3.716 1.704l.725-.993-1.877-.528 1.152 1.521z" fill="#414141"/></svg>