<svg width="25" height="24" fill="none" xmlns="http://www.w3.org/2000/svg"><path fill-rule="evenodd" clip-rule="evenodd" d="M6 21a2.5 2.5 0 115 0 2.5 2.5 0 01-5 0zm2.5-1.5a1.5 1.5 0 100 3 1.5 1.5 0 000-3zM18 21a2.5 2.5 0 115 0 2.5 2.5 0 01-5 0zm2.5-1.5a1.5 1.5 0 100 3 1.5 1.5 0 000-3zM1.5.5a.5.5 0 000 1h3.58c.758 4.291 1.523 8.564 2.17 12.87a2.5 2.5 0 002.472 2.13H19.86a2.5 2.5 0 002.451-2.01l1.44-7.196A1.5 1.5 0 0022.278 5.5H7.66a1.49 1.49 0 00-.816.24L5.992.914A.5.5 0 005.5.5h-4zm5.666 6.574A.5.5 0 017.66 6.5h14.62a.5.5 0 01.49.598l-1.44 7.196a1.5 1.5 0 01-1.47 1.206H9.722a1.5 1.5 0 01-1.484-1.277L7.166 7.074z" fill="#414141"/></svg>