<svg width="24" height="24" fill="none" xmlns="http://www.w3.org/2000/svg"><path d="M11.786 17.363h1.195s.361-.04.545-.238c.17-.183.164-.525.164-.525s-.024-1.604.721-1.84c.734-.233 1.677 1.55 2.675 2.236.755.519 1.33.405 1.33.405l2.67-.038s1.398-.086.736-1.185c-.054-.09-.386-.812-1.987-2.297-1.675-1.555-1.45-1.303.568-3.992 1.229-1.637 1.72-2.638 1.566-3.065-.146-.408-1.05-.3-1.05-.3l-3.005.017s-.223-.03-.389.07c-.161.097-.265.322-.265.322s-.476 1.267-1.11 2.345c-1.339 2.274-1.875 2.394-2.094 2.252-.509-.328-.381-1.322-.381-2.027 0-2.204.333-3.123-.652-3.36-.327-.08-.567-.132-1.404-.14-1.072-.012-1.98.003-2.495.255-.342.167-.606.54-.445.562.199.026.65.121.888.446.309.42.297 1.362.297 1.362s.178 2.594-.413 2.916c-.407.221-.963-.23-2.157-2.294C6.682 8.194 6.22 7.025 6.22 7.025s-.088-.217-.247-.334a1.273 1.273 0 00-.463-.186l-2.857.018s-.43.012-.587.198c-.14.167-.011.51-.011.51s2.238 5.233 4.77 7.872c2.324 2.42 4.962 2.26 4.962 2.26z" fill="#1E88E5"/></svg>