<svg width="64.000000" height="44.000732" viewBox="0 0 64 44.0007" fill="none" xmlns="http://www.w3.org/2000/svg" xmlns:xlink="http://www.w3.org/1999/xlink">
	<desc>
			Created with Pixso.
	</desc>
	<defs/>
	<path id="Vector" d="M44.9922 14.2617L17.4756 14.2617C16.8984 14.2617 16.4287 14.7324 16.4795 15.2854C17.082 21.8704 23.458 27.052 31.2324 27.052C39.0078 27.052 45.3828 21.8704 45.9863 15.2854C46.0381 14.7324 45.5693 14.2617 44.9922 14.2617Z" fill="#FF6633" fill-opacity="1.000000" fill-rule="nonzero"/>
	<path id="Vector" d="M26.2656 4.40845C25.958 4.40845 25.6533 4.27588 25.4541 4.02173C24.4482 2.75098 22.5391 1.95996 20.4707 1.95996C18.4023 1.95996 16.4932 2.74927 15.4883 4.02173C15.1475 4.45312 14.5068 4.5354 14.0605 4.20801C13.6113 3.88037 13.5264 3.26465 13.8662 2.83521C15.2705 1.05957 17.7383 0 20.4707 0C23.2031 0 25.6719 1.05957 27.0771 2.83521C27.417 3.2666 27.3301 3.88037 26.8828 4.20801C26.6973 4.34399 26.4814 4.40845 26.2656 4.40845Z" fill="#414141" fill-opacity="1.000000" fill-rule="nonzero"/>
	<path id="Vector" d="M47.7881 4.40845C47.4805 4.40845 47.1758 4.27588 46.9766 4.02173C45.9707 2.75098 44.0615 1.95996 41.9932 1.95996C39.9248 1.95996 38.0156 2.74927 37.0107 4.02173C36.6699 4.45312 36.0293 4.5354 35.583 4.20801C35.1338 3.88037 35.0488 3.26465 35.3887 2.83521C36.793 1.05957 39.2607 0 41.9932 0C44.7256 0 47.1943 1.05957 48.5996 2.83521C48.9395 3.2666 48.8525 3.88037 48.4053 4.20801C48.2197 4.34399 48.0039 4.40845 47.7881 4.40845Z" fill="#414141" fill-opacity="1.000000" fill-rule="nonzero"/>
	<path id="Vector" d="M2.85156 30.0032L2.45215 31.0215C2.41602 31.1057 2.28809 31.1396 2.16895 31.0986C1.89746 31.0198 1.61621 30.8784 1.32227 30.6707C1.0293 30.4668 0.798828 30.2502 0.62793 30.0227C0.369141 29.6775 0.188477 29.3015 0.0878906 28.9006C-0.00878906 28.4961 -0.0234375 28.106 0.0341797 27.7229C0.0957031 27.3435 0.236328 26.9766 0.456055 26.6257C0.677734 26.2749 0.962891 25.9761 1.32031 25.729C1.67578 25.4819 2.06055 25.3137 2.47559 25.2224C2.89062 25.1311 3.29883 25.1169 3.69336 25.1812C4.09375 25.2456 4.47363 25.3835 4.83789 25.6001C5.20703 25.8149 5.52148 26.0977 5.78027 26.4431C5.94531 26.665 6.08496 26.946 6.19336 27.2808C6.30469 27.6155 6.36035 27.9287 6.3584 28.2222C6.36035 28.3403 6.27344 28.4299 6.17676 28.4333L5.04883 28.4639C4.94043 28.4639 4.85156 28.3672 4.85156 28.2295C4.85449 28.063 4.83203 27.8948 4.77832 27.7192C4.72461 27.5439 4.65527 27.3989 4.57031 27.2844C4.29297 26.9155 3.92383 26.6919 3.46289 26.6204C3.00488 26.5469 2.58789 26.6436 2.2041 26.9084C1.82422 27.1716 1.59766 27.5225 1.52637 27.9646C1.45996 28.4031 1.56348 28.811 1.84082 29.1797C1.92676 29.2944 2.04395 29.4019 2.19629 29.502C2.35156 29.604 2.50195 29.6809 2.65625 29.7292C2.80762 29.7759 2.89062 29.8958 2.85156 30.0032Z" fill="#414141" fill-opacity="1.000000" fill-rule="nonzero"/>
	<path id="Vector" d="M7.35449 28.8362C7.44727 28.7378 7.56641 28.7341 7.66699 28.8237L10.5635 31.3831C10.666 31.4727 10.6699 31.5872 10.5762 31.6838L9.9248 32.364C9.82617 32.4678 9.7207 32.4714 9.6123 32.3765L7.6582 30.6492L6.97266 31.3652L8.45605 32.6772C8.56836 32.7756 8.5791 32.8938 8.47852 32.9976L7.94043 33.5596C7.84766 33.658 7.72266 33.6562 7.61328 33.5596L6.12988 32.2476L5.42578 32.9851L7.38086 34.7122C7.51855 34.834 7.5293 34.9915 7.41211 35.1113L6.80176 35.7502C6.71094 35.8452 6.58984 35.8469 6.48926 35.7576L3.5332 33.1479C3.43066 33.0583 3.42285 32.9475 3.5166 32.8491L7.35449 28.8362Z" fill="#414141" fill-opacity="1.000000" fill-rule="nonzero"/>
	<path id="Vector" d="M13.6201 37.2576C13.6133 37.5422 13.5293 37.8088 13.3672 38.0576C13.0605 38.532 12.6621 38.8042 12.1719 38.8757C11.6865 38.949 11.1562 38.8167 10.584 38.4729L8.57227 37.2666C8.47949 37.2112 8.46289 37.1396 8.51855 37.0537L11.582 32.3284C11.6377 32.2424 11.7129 32.2263 11.8037 32.282L13.667 33.3987C14.2119 33.7263 14.5527 34.1057 14.6904 34.5388C14.8281 34.9719 14.75 35.4177 14.4561 35.8723C14.2197 36.2375 13.8066 36.4773 13.3916 36.4897C13.5518 36.719 13.6279 36.9731 13.6201 37.2576ZM11.2861 37.3562C11.6152 37.5547 11.9541 37.4814 12.1553 37.1716C12.3525 36.8674 12.2656 36.5542 11.9336 36.3574L11.0889 35.8508L10.4414 36.8496L11.2861 37.3562ZM12.2373 34.0825L11.6904 34.9255L12.3877 35.3442C12.6689 35.5125 12.9482 35.4534 13.1162 35.1938C13.2832 34.9343 13.2148 34.6694 12.9336 34.5012L12.2373 34.0825Z" fill="#414141" fill-opacity="1.000000" fill-rule="nonzero"/>
	<path id="Vector" d="M16.4648 35.1865C16.5166 35.0632 16.625 35.0183 16.7529 35.0686L20.4033 36.4771C20.5312 36.5273 20.5781 36.6311 20.5264 36.7546L20.1689 37.6118C20.1143 37.7424 20.0156 37.782 19.8799 37.73L17.416 36.7795L17.04 37.6816L18.9102 38.4031C19.0498 38.4568 19.1035 38.5642 19.0498 38.6948L18.7539 39.4036C18.7021 39.5271 18.5869 39.5681 18.4473 39.5144L16.5762 38.7932L16.1895 39.7222L18.6533 40.6726C18.8281 40.7405 18.8955 40.8818 18.8301 41.0359L18.4932 41.8413C18.4434 41.9612 18.3311 42.0042 18.2031 41.9541L14.4785 40.5168C14.3496 40.4668 14.3018 40.3665 14.3535 40.2429L16.4648 35.1865Z" fill="#414141" fill-opacity="1.000000" fill-rule="nonzero"/>
	<path id="Vector" d="M23.9775 37.3452C24.6143 37.4795 25.0889 37.7693 25.4014 38.2188C25.7139 38.6643 25.8057 39.1887 25.666 39.7937C25.5303 40.3916 25.2188 40.8281 24.7412 41.1057C24.2627 41.3796 23.708 41.4512 23.0693 41.3169L22.3545 41.1665L21.9971 42.729C21.9678 42.8579 21.8691 42.9207 21.7256 42.8901L20.6797 42.6699C20.5449 42.6414 20.4854 42.5464 20.5137 42.4177L21.7295 37.0964C21.7568 36.9746 21.8633 36.9031 21.9893 36.9299L22.5166 37.041L23.0469 37.1536L23.9775 37.3452ZM23.3037 40.0103C23.5127 40.0549 23.7021 40.0247 23.8682 39.9243C24.0371 39.8242 24.1436 39.6738 24.1895 39.4734C24.2363 39.2729 24.2051 39.094 24.0947 38.9346C23.9902 38.7717 23.8301 38.668 23.6221 38.625L22.9688 38.4871L22.6523 39.8743L23.3037 40.0103Z" fill="#414141" fill-opacity="1.000000" fill-rule="nonzero"/>
	<path id="Vector" d="M31.2773 38.1311C31.4082 38.1384 31.4893 38.2314 31.4824 38.355L31.1699 43.7996C31.1621 43.9321 31.0781 44.009 30.9404 44L29.8721 43.9429C29.7246 43.9355 29.6465 43.8499 29.6543 43.7173L29.7471 42.0957L29.126 42.0635L28.1377 43.6707C28.0498 43.8069 27.9941 43.8445 27.873 43.8372L26.624 43.771C26.4902 43.7639 26.4229 43.6313 26.4951 43.5186L27.6738 41.668C27.0967 41.2957 26.7842 40.6709 26.8271 39.9353C26.8623 39.3213 27.0908 38.8381 27.5176 38.489C27.9434 38.1365 28.4854 37.9807 29.1367 38.0149L31.0039 38.1133L31.2773 38.1311ZM29.8203 40.8391L29.9033 39.377L29.124 39.3357C28.9062 39.325 28.7236 39.3823 28.5781 39.5076C28.4336 39.6328 28.3535 39.7976 28.3398 40.0068C28.3291 40.2163 28.3887 40.3953 28.5186 40.551C28.6533 40.7031 28.8281 40.7854 29.04 40.7961L29.8203 40.8391Z" fill="#414141" fill-opacity="1.000000" fill-rule="nonzero"/>
	<path id="Vector" d="M37.8857 37.5527C37.9902 37.5403 38.0498 37.5867 38.0625 37.6907L38.751 43.2178C38.7646 43.3215 38.7158 43.3787 38.6133 43.3914L37.4395 43.5273C37.335 43.5398 37.2754 43.4934 37.2627 43.3894L36.9883 41.1934L34.7178 41.4546L34.9912 43.6509C35.0049 43.7546 34.9561 43.812 34.8535 43.8245L33.6826 43.9587C33.5752 43.9712 33.5156 43.9246 33.502 43.8208L32.8135 38.2937C32.8008 38.1899 32.8486 38.1326 32.957 38.1201L34.1279 37.9858C34.2324 37.9734 34.292 38.02 34.3047 38.1238L34.5557 40.1409L36.8271 39.8796L36.5752 37.8623C36.5625 37.7585 36.6104 37.7014 36.7129 37.6887L37.8857 37.5527Z" fill="#414141" fill-opacity="1.000000" fill-rule="nonzero"/>
	<path id="Vector" d="M39.7979 38.9775C39.832 38.564 39.9395 38.1863 40.1182 37.8464C40.3008 37.5044 40.5518 37.1965 40.874 36.9282C41.1943 36.656 41.5605 36.4556 41.9775 36.3232C42.3945 36.1907 42.8135 36.1423 43.2363 36.1782C43.6602 36.2085 44.0537 36.3125 44.4072 36.4841C44.7646 36.6543 45.0859 36.896 45.3652 37.2092C45.6484 37.5171 45.8574 37.8696 45.9951 38.2705C46.1768 38.802 46.2109 39.3337 46.0967 39.8599C45.9834 40.3879 45.7432 40.8533 45.3652 41.2578C44.9932 41.6604 44.5283 41.9468 43.9717 42.124C43.5547 42.2566 43.1357 42.3049 42.7109 42.2744C42.2852 42.2405 41.8926 42.1365 41.5352 41.9666C41.1816 41.7947 40.8613 41.5549 40.5801 41.2488C40.3027 40.9392 40.0918 40.5867 39.9561 40.1892C39.8164 39.7883 39.7666 39.3855 39.7979 38.9775ZM42.2178 40.6599C42.626 40.8569 43.0518 40.8818 43.4971 40.7405C43.9375 40.6008 44.2598 40.3359 44.4668 39.9458C44.6709 39.554 44.7051 39.1511 44.5576 38.7268C44.4111 38.2991 44.1338 37.9895 43.7256 37.7927C43.3184 37.5957 42.8936 37.5654 42.4541 37.7048C42.0137 37.8445 41.6875 38.113 41.4824 38.5049C41.2783 38.897 41.2461 39.3049 41.3936 39.731C41.5391 40.157 41.8125 40.4631 42.2178 40.6599Z" fill="#414141" fill-opacity="1.000000" fill-rule="nonzero"/>
	<path id="Vector" d="M49.9473 32.7739C50.0469 32.7185 50.1719 32.7561 50.2373 32.8635L53.0664 37.5815C53.1279 37.6819 53.0947 37.8125 52.9883 37.8696L52.0498 38.3887C51.9463 38.4478 51.8174 38.4102 51.7559 38.3101L50.8008 36.7188C50.6836 37.1038 50.3975 37.4705 49.9932 37.696C49.3701 38.0415 48.748 38.1311 48.1299 37.9683C47.5107 37.8018 47.0098 37.4026 46.6299 36.769L45.7715 35.3372C45.71 35.2368 45.7383 35.1045 45.8369 35.0508L46.7676 34.5352C46.8828 34.4707 47.0186 34.5029 47.082 34.6104L47.9385 36.0386C48.2656 36.5847 48.7969 36.7224 49.3662 36.4075C49.6523 36.248 49.8281 36.0439 49.9043 35.7935C49.9805 35.543 49.9414 35.2852 49.7852 35.0239L48.9248 33.5884C48.8633 33.488 48.8955 33.354 48.9971 33.2983L49.9473 32.7739Z" fill="#414141" fill-opacity="1.000000" fill-rule="nonzero"/>
	<path id="Vector" d="M59.2314 32.6001C59.375 32.6343 59.4434 32.7632 59.3359 32.8562L58.3008 33.7456C58.2354 33.8013 58.1572 33.8262 58.0732 33.8154L55.3877 33.146L54.7451 33.6975L56.2305 35.2957C56.3037 35.3745 56.2998 35.4478 56.2217 35.5142L55.334 36.2783C55.252 36.3481 55.1758 36.3445 55.1025 36.2659L51.25 32.1187C51.1807 32.0435 51.1846 31.9702 51.2646 31.9004L52.1523 31.1362C52.2305 31.0698 52.3066 31.0735 52.3779 31.1487L53.792 32.6719L54.2949 32.2405L54.0586 29.699C54.0439 29.5449 54.0918 29.4822 54.2021 29.3875L55.2275 28.5068C55.3428 28.4084 55.4697 28.4836 55.4824 28.6428L55.7598 31.7483L59.2314 32.6001Z" fill="#414141" fill-opacity="1.000000" fill-rule="nonzero"/>
	<path id="Vector" d="M63.8457 26.6721C63.9883 26.7061 64.0459 26.8081 63.9531 26.937L63.2705 27.8713C63.2031 27.9626 63.0742 28.0002 62.9521 27.9717L62.1367 27.7444L60.917 29.4106L61.4141 30.0657C61.4902 30.157 61.4961 30.2896 61.4219 30.3896L60.7402 31.3203C60.6514 31.4421 60.5342 31.4368 60.4443 31.3115L57.0957 26.4216C57.0215 26.3071 57.0254 26.1763 57.0918 26.085L57.6006 25.3906C57.667 25.2993 57.8018 25.2563 57.9258 25.2869L63.8457 26.6721ZM60.1299 28.376L60.8555 27.3828L58.9775 26.8547L60.1299 28.376Z" fill="#414141" fill-opacity="1.000000" fill-rule="nonzero"/>
</svg>
