<svg width="24" height="24" fill="none" xmlns="http://www.w3.org/2000/svg"><path fill-rule="evenodd" clip-rule="evenodd" d="M13.5 2a.5.5 0 01.5-.5h5A2.5 2.5 0 0121.5 4v16a2.5 2.5 0 01-2.5 2.5h-5a.5.5 0 010-1h5a1.5 1.5 0 001.5-1.5V4A1.5 1.5 0 0019 2.5h-5a.5.5 0 01-.5-.5z" fill="#fff"/><path fill-rule="evenodd" clip-rule="evenodd" d="M10.646 7.646a.5.5 0 01.708 0l4 4a.5.5 0 010 .708l-4 4a.5.5 0 01-.708-.708L14.293 12l-3.647-3.646a.5.5 0 010-.708z" fill="#fff"/><path fill-rule="evenodd" clip-rule="evenodd" d="M2.5 12a.5.5 0 01.5-.5h12a.5.5 0 010 1H3a.5.5 0 01-.5-.5z" fill="#fff"/></svg>