<svg width="49" height="40" fill="none" xmlns="http://www.w3.org/2000/svg"><path d="M5.366 21.157h38.32c.804 0 1.457.686 1.387 1.491-.84 9.59-9.718 17.136-20.545 17.136-10.828 0-19.706-7.546-20.546-17.136-.072-.805.58-1.49 1.384-1.49z" fill="#F63"/><path d="M31.444 6.808a1.41 1.41 0 001.13-.563c1.4-1.85 4.059-3.002 6.939-3.002s5.54 1.15 6.939 3.002a1.413 1.413 0 001.988.271 1.431 1.431 0 00.27-1.999C46.755 1.931 43.318.388 39.513.388c-3.805 0-7.243 1.543-9.2 4.13a1.433 1.433 0 00.27 1.998c.26.199.56.292.86.292zm-29.969 0c.427 0 .853-.193 1.13-.563 1.4-1.85 4.06-3.002 6.94-3.002 2.879 0 5.539 1.15 6.938 3.002a1.413 1.413 0 001.988.271 1.431 1.431 0 00.27-1.999C16.787 1.931 13.35.388 9.544.388c-3.805 0-7.242 1.543-9.2 4.13a1.433 1.433 0 00.27 1.998c.26.199.56.292.86.292z" fill="#414141"/></svg>