<svg width="24" height="24" fill="none" xmlns="http://www.w3.org/2000/svg"><path fill-rule="evenodd" clip-rule="evenodd" d="M.53 5.628C.3 3.782 1.88 2.5 3.577 2.5h3.591a1.5 1.5 0 011.476 1.232l.606 3.335a3.5 3.5 0 01-.71 2.812l-.724.904a.467.467 0 00-.04.537c.469.766 1.314 2.06 2.08 2.826.767.767 2.06 1.612 2.826 2.081.163.1.376.088.538-.04l.904-.724a3.5 3.5 0 012.812-.71l3.335.606a1.5 1.5 0 011.232 1.476v3.347c0 1.821-1.451 3.442-3.385 3.131-3.313-.533-8.048-2.236-11.982-6.473C2.31 12.72.893 8.515.531 5.628zM3.577 3.5c-1.265 0-2.19.91-2.053 2.003.338 2.692 1.671 6.7 5.345 10.657 3.75 4.038 8.263 5.66 11.408 6.166 1.194.192 2.226-.797 2.226-2.144v-3.347a.5.5 0 00-.41-.492l-3.336-.607a2.5 2.5 0 00-2.009.508l-.904.723a1.465 1.465 0 01-1.684.113c-.764-.468-2.151-1.367-3.01-2.226-.86-.86-1.76-2.248-2.227-3.01a1.467 1.467 0 01.113-1.685l.723-.905a2.5 2.5 0 00.507-2.009L7.66 3.911a.5.5 0 00-.492-.411H3.576z" fill="#414141"/></svg>